PathFileType	4	(X/Y/Z)	C:\Users\Basilio\Documents\Thesis Gigler\squatting_fais\c3dfiles\047\SJ_pre4\markers_experimental.trc
DataRate	CameraRate	NumFrames	NumMarkers	Units	OrigDataRate	OrigDataStartFrame	OrigNumFrames
200.000000	200.000000	4	61	mm	200.000000	0	1569
Frame#	Time	FHD			LBHD			RBHD			C7			T10			CLAV			LSHO			LUUPA			LMUPA			LDUPA			LLEP			LMEP			LRAD			LUL			LRFIN			RSHO			RUPA1			RMUPA			RDUPA			RLEP			RMEP			RRAD			RUL			RUFIN			LASI			RASI			USACR			LSACR			RSACR			LTHI1			LTHI2			LTHI3			LTHI4			LLFC			LMFC			LTIB1			LTIB2			LTIB3			LTIB4			LLMAL			LMMAL			LMT1			LMT2			LMT5			RTHI			RTHI2			RTHI3			RTHI4			RLFC			RMFC			RTIB1			RTIB2			RTIB3			RTIB4			RLMAL			RMMAL			RHEE			RMT1			RMT2			RMT5			*60			
		X1	Y1	Z1	X2	Y2	Z2	X3	Y3	Z3	X4	Y4	Z4	X5	Y5	Z5	X6	Y6	Z6	X7	Y7	Z7	X8	Y8	Z8	X9	Y9	Z9	X10	Y10	Z10	X11	Y11	Z11	X12	Y12	Z12	X13	Y13	Z13	X14	Y14	Z14	X15	Y15	Z15	X16	Y16	Z16	X17	Y17	Z17	X18	Y18	Z18	X19	Y19	Z19	X20	Y20	Z20	X21	Y21	Z21	X22	Y22	Z22	X23	Y23	Z23	X24	Y24	Z24	X25	Y25	Z25	X26	Y26	Z26	X27	Y27	Z27	X28	Y28	Z28	X29	Y29	Z29	X30	Y30	Z30	X31	Y31	Z31	X32	Y32	Z32	X33	Y33	Z33	X34	Y34	Z34	X35	Y35	Z35	X36	Y36	Z36	X37	Y37	Z37	X38	Y38	Z38	X39	Y39	Z39	X40	Y40	Z40	X41	Y41	Z41	X42	Y42	Z42	X43	Y43	Z43	X44	Y44	Z44	X45	Y45	Z45	X46	Y46	Z46	X47	Y47	Z47	X48	Y48	Z48	X49	Y49	Z49	X50	Y50	Z50	X51	Y51	Z51	X52	Y52	Z52	X53	Y53	Z53	X54	Y54	Z54	X55	Y55	Z55	X56	Y56	Z56	X57	Y57	Z57	X58	Y58	Z58	X59	Y59	Z59	X60	Y60	Z60	X61	Y61	Z61	

1	0	22.70002365112305	1465.72607421875	-888.4180297851565	-71.16469573974611	1593.1103515625	-981.0187988281252	-90.32162475585939	1619.662719726563	-836.963562011719	-279.6537170410157	1508.517578125	-917.9427490234377	-407.4607238769532	1195.088134765625	-909.0671386718752	-173.9603881835938	1380.459350585938	-909.8978271484377	-225.5543212890626	1435.114868164063	-1085.453125	-357.4112243652344	1345.4150390625	-1207.667236328125	-324.1970520019532	1311.951293945313	-1228.489624023438	-378.3775939941407	1293.846313476563	-1249.552978515625	-380.8410644531251	1228.693969726563	-1283.740478515625	-440.6594238281251	1208.628051757813	-1207.792114257813	-295.6013488769532	1065.658081054688	-1109.980590820313	-258.1132812500001	1030.70361328125	-1169.61376953125	-238.5381011962891	1050.920776367188	-1069.667602539063	-237.6188049316407	1455.898315429688	-750.9415893554689	-394.9688415527345	1377.390258789063	-632.9205322265626	-370.8828735351563	1341.10595703125	-608.0962524414064	-427.5965270996095	1328.168579101563	-593.9095458984376	-438.4475097656251	1262.700561523438	-559.7388916015626	-489.6356811523439	1239.047973632813	-634.7631225585939	-305.8820190429688	1099.805419921875	-701.1618041992189	-300.0132141113282	1060.62060546875	-636.0948486328126	-255.5214538574219	1059.308471679688	-729.8676147460939	-249.9115905761719	946.6426391601565	-1007.47021484375	-258.7449645996094	950.8897705078127	-779.2507324218752	-427.5288085937501	1045.320922851563	-909.009948730469	-429.937957763672	1013.323181152344	-937.996520996094	-433.7246704101564	1014.868103027344	-879.3328857421877	-352.3466491699219	814.0036621093752	-1097.907348632813	-320.5682678222657	736.9584350585939	-1111.48291015625	-271.6436157226563	737.0305175781251	-1101.59765625	-350.5758666992188	683.4289550781251	-1111.3994140625	-377.4942626953126	508.3719787597657	-1093.920654296875	-321.8423461914063	480.2368164062501	-987.315612792969	-322.6194152832032	314.2038574218751	-1047.8525390625	-351.3034362792969	280.7286376953126	-1124.997192382813	-323.2875061035157	272.5380554199219	-1088.796997070313	-325.9011840820313	191.0553436279297	-1071.536254882813	-380.5428466796876	95.64758300781251	-1124.110473632813	-341.9099731445313	101.1992797851563	-1042.724243164063	-217.7044982910157	63.59813690185548	-1097.023071289063	-227.627182006836	61.1346778869629	-1139.52001953125	-275.8363952636719	43.15146255493165	-1178.509521484375	-374.8959045410157	785.5476074218752	-695.7678222656251	-340.3572082519532	729.8670654296876	-679.3623657226564	-307.3427124023438	730.0353393554689	-682.0353393554689	-367.4855346679688	650.4500732421876	-689.5176391601564	-361.2809143066407	500.4498596191407	-698.4778442382814	-316.9083251953126	485.2444763183595	-811.3249511718752	-319.8108825683594	374.4252319335938	-702.2023925781251	-382.9857788085938	291.2829284667969	-672.2747192382814	-336.6773376464844	293.1742248535157	-677.2925415039064	-319.3054504394532	243.9552307128907	-707.2227783203126	-377.7684936523438	91.37277984619142	-681.2761840820314	-335.1175842285157	104.4598846435547	-764.3620605468751	-420.6378479003907	50.44526290893556	-741.8098144531251	-210.5693511962891	54.57997894287111	-711.8048706054689	-218.5043640136719	60.80934143066408	-666.3922729492189	-274.6650390625001	32.65351104736329	-621.0068359375001	nan	nan	nan	
2	0.005	22.55776023864746	1465.708251953125	-888.309265136719	-71.26788330078126	1593.109375	-980.9372558593752	-90.32748413085939	1619.675170898438	-836.9214477539065	-279.6837463378907	1508.490600585938	-917.867370605469	-407.5690307617189	1194.972290039063	-908.7103271484377	-174.0179138183594	1380.494140625	-909.7561645507815	-225.6752624511719	1434.877319335938	-1085.303466796875	-357.4678039550782	1345.02880859375	-1207.4453125	-324.2606201171876	1311.57958984375	-1228.30517578125	-378.3717041015626	1293.40185546875	-1249.397705078125	-380.8422851562501	1228.2578125	-1283.485717773438	-440.6670532226564	1208.3046875	-1207.5498046875	-295.6298828125001	1065.3642578125	-1109.59130859375	-258.0562438964844	1030.292114257813	-1169.104858398438	-238.6532745361329	1050.652465820313	-1069.136352539063	-237.6842803955079	1455.90625	-750.7990112304689	-395.0926513671876	1377.343139648438	-632.6752929687501	-371.0863037109376	1341.151245117188	-607.6987915039064	-427.6420288085939	1328.108032226563	-593.6720581054689	-438.4771423339845	1262.682739257813	-559.4544677734376	-489.5954895019532	1238.958740234375	-634.4318237304689	-305.7700805664063	1099.630981445313	-700.7174072265626	-300.0676879882813	1060.624877929688	-635.5403442382814	-255.5054473876954	1059.180053710938	-729.3837890625001	-249.7216796875001	947.0086059570315	-1007.035278320313	-258.8548278808594	950.7354125976565	-778.8147583007815	-427.6735839843751	1045.267944335938	-908.525085449219	-429.9061279296876	1013.247009277344	-937.6165161132815	-433.6759643554689	1014.692016601563	-878.9045410156252	-352.3829956054688	814.0985107421877	-1097.566528320313	-320.6525573730469	737.0433959960939	-1111.244873046875	-271.7590332031251	737.1759643554689	-1101.36279296875	-350.5659790039063	683.5285644531251	-1111.227905273438	-377.5423278808594	508.4090576171876	-1093.81591796875	-321.8298645019532	480.2579345703126	-987.223815917969	-322.5926513671876	314.2473754882813	-1047.787353515625	-351.3917236328126	280.8195190429688	-1124.964233398438	-323.3180236816407	272.6190795898438	-1088.770874023438	-325.6462097167969	191.2624206542969	-1071.688354492188	-380.5601501464844	95.66261291503908	-1124.076171875	-341.8387145996094	101.2448120117188	-1042.773681640625	-217.7191162109376	63.59156799316408	-1097.1015625	-227.5972290039063	61.10634994506837	-1139.511108398438	-275.7772827148438	43.10548400878907	-1178.570190429688	-375.2158203125001	785.496520996094	-695.6084594726564	-340.7940673828126	730.1964111328126	-678.6951904296876	-307.6303100585938	730.5894775390626	-681.5987548828126	-367.9397888183594	650.4567871093751	-689.3074340820314	-361.6454772949219	500.3931274414064	-698.2410278320314	-316.9901733398438	485.2803039550782	-811.230895996094	-319.9715270996094	374.0606994628907	-702.3418579101564	-383.2750549316407	291.1996765136719	-672.0186767578126	-336.8960876464844	293.0669860839844	-677.0854492187501	-319.6280517578126	243.8711090087891	-706.9715576171876	-377.8892517089844	91.26480865478517	-681.1936035156251	-335.2005310058594	104.4681015014649	-764.1199951171876	-420.6950683593751	50.40843200683595	-741.7350463867189	-210.5847625732422	54.6633758544922	-711.6837768554689	-218.5418090820313	60.83596801757814	-666.3096923828126	-274.6860656738282	32.55754089355469	-620.9169311523439	nan	nan	nan	
3	0.01	22.45352935791016	1465.719116210938	-888.1981201171877	-71.37634277343751	1593.081420898438	-980.8581542968752	-90.29455566406251	1619.7548828125	-836.8574218750002	-279.7284240722657	1508.447387695313	-917.730407714844	-407.740692138672	1195.0244140625	-908.3049316406252	-174.0242919921875	1380.489501953125	-909.5650634765627	-225.6832122802735	1434.69677734375	-1085.205078125	-357.4519653320313	1344.668334960938	-1207.270874023438	-324.2203063964844	1311.230834960938	-1228.148315429688	-378.3947448730469	1293.013305664063	-1249.119140625	-380.8233337402344	1227.812377929688	-1283.217041015625	-440.620574951172	1207.890258789063	-1207.251953125	-295.5634765625001	1065.096313476563	-1109.163330078125	-258.0465698242188	1029.93115234375	-1168.704833984375	-238.731674194336	1050.359619140625	-1068.563354492188	-237.7202148437501	1456.449340820313	-749.8041992187501	-395.3013305664064	1377.222045898438	-632.3635253906251	-371.1771240234376	1341.073974609375	-607.3423461914064	-427.7097473144532	1327.994018554688	-593.4163818359376	-438.5015563964845	1262.598876953125	-559.1506347656251	-489.5265502929689	1238.869384765625	-634.1053466796876	-305.6721801757813	1099.533569335938	-700.2932128906251	-300.0917358398438	1060.585693359375	-635.0286254882814	-255.4725189208985	1059.017211914063	-728.9163208007814	-249.2174072265626	947.1807250976565	-1005.8623046875	-258.8922424316407	950.6379394531252	-777.343933105469	-427.8369750976564	1045.210693359375	-908.0476074218752	-429.9800720214845	1013.26025390625	-937.2532958984377	-433.7610473632814	1014.65234375	-878.5408935546877	-352.4306945800782	814.1990356445315	-1097.267578125	-320.6434936523438	737.1395263671876	-1110.998413085938	-271.7906494140626	737.2870483398439	-1101.129638671875	-350.5458679199219	683.6201782226564	-1111.016357421875	-377.5956726074219	508.4720153808595	-1093.610961914063	-321.8238830566407	480.3144531250001	-987.0803222656252	-322.6643066406251	314.3097839355469	-1047.683959960938	-351.5093688964844	280.9279174804688	-1124.879028320313	-323.3292541503907	272.7409973144532	-1088.763549804688	-325.5960083007813	191.4054565429688	-1071.735229492188	-380.4592285156251	95.7124481201172	-1124.079345703125	-341.7842407226563	101.3160095214844	-1042.737426757813	-217.7178192138672	63.6246681213379	-1097.106689453125	-227.6569519042969	61.0669631958008	-1139.537475585938	-275.8110046386719	43.07334136962891	-1178.56396484375	-375.6678161621094	785.5314941406252	-695.4465332031251	-341.2545776367188	730.1871948242189	-678.3901367187501	-307.8065795898438	730.8276367187501	-680.5845947265626	-368.3713073730469	650.4116821289064	-688.9837036132814	-361.9016723632813	500.3690490722657	-698.0109252929689	-317.2250366210938	485.377899169922	-811.0871582031252	-320.1845703125001	374.0172119140626	-702.0964965820314	-383.4771118164063	291.0975646972657	-671.8174438476564	-337.0082397460938	293.0348205566407	-676.9412231445314	-319.7573547363282	243.8190155029297	-706.8033447265626	-377.9244689941407	91.1959915161133	-681.1622924804689	-335.2548217773438	104.4752655029297	-763.9424438476564	-420.8417053222657	50.45352935791017	-741.6817016601564	-210.5589141845704	54.77560424804689	-711.6134643554689	-218.6547851562501	60.92901992797853	-666.2041015625001	-274.7366943359376	32.46163558959962	-620.8947143554689	nan	nan	nan	
4	0.015	22.44595718383789	1465.73876953125	-888.138854980469	-71.43477630615236	1593.078125	-980.7868652343752	-90.30144500732423	1619.892456054688	-836.7374267578127	-279.7541198730469	1508.44091796875	-917.5761718750002	-407.630096435547	1194.99365234375	-907.9685668945315	-174.1355895996094	1380.455322265625	-909.336853027344	-225.7407531738282	1434.482055664063	-1085.020751953125	-357.1356811523438	1343.924438476563	-1207.23583984375	-324.1930541992188	1310.87890625	-1227.945556640625	-378.4152832031251	1292.613525390625	-1248.8427734375	-380.7474670410157	1227.41064453125	-1282.906127929688	-440.6595458984376	1207.514282226563	-1206.952392578125	-295.5079650878907	1064.80322265625	-1108.739379882813	-258.0099487304688	1029.665283203125	-1168.22509765625	-238.7144927978516	1050.137939453125	-1068.112426757813	-237.8958129882813	1456.5	-749.5305786132814	-395.3560485839845	1377.206665039063	-632.1306762695314	-371.2285156250001	1341.070190429688	-607.1253051757814	-427.735321044922	1327.948852539063	-593.1793212890626	-438.4312133789064	1262.570190429688	-558.8588867187501	-489.4718017578126	1238.798950195313	-633.7182617187501	-305.7267150878907	1099.405883789063	-699.8571777343751	-300.0883483886719	1060.452758789063	-634.4805908203126	-255.4956359863282	1058.943237304688	-728.4403076171876	-249.3280792236329	947.2666625976565	-1005.598693847656	-258.9150695800782	950.536560058594	-777.0554809570315	-428.011199951172	1045.202392578125	-907.6616210937502	-430.0242004394532	1013.220642089844	-936.8865356445315	-433.9083557128907	1014.632873535156	-878.1382446289065	-352.4722595214844	814.2281494140627	-1096.8994140625	-320.7253112792969	737.3069458007814	-1110.727783203125	-271.7108154296876	737.4277954101564	-1100.8662109375	-350.6210327148438	683.7024536132814	-1110.757934570313	-377.6791076660157	508.5096740722657	-1093.44287109375	-321.7591857910157	480.3368225097657	-986.8740844726565	-322.6607666015626	314.4035949707032	-1047.625244140625	-351.5639038085938	281.0773620605469	-1124.853393554688	-323.3473510742188	272.7982788085938	-1088.72265625	-325.5676879882813	191.4267578125	-1071.731567382813	-380.5177307128907	95.79071044921876	-1123.982421875	-341.6421203613282	101.3480453491211	-1042.80517578125	-217.6896362304688	63.60140991210939	-1097.135620117188	-227.5911254882813	61.00604248046876	-1139.558959960938	-275.8277893066407	43.09152984619141	-1178.563354492188	-376.1121520996094	785.5734863281252	-695.3482666015626	-341.7335205078126	730.1608886718751	-678.1129150390626	-308.4628601074219	730.8532714843751	-680.0383300781251	-368.7411804199219	650.2802124023439	-688.7843017578126	-362.3045959472657	500.3391723632814	-697.6748657226564	-317.2534484863282	485.5282287597657	-811.0345458984377	-320.5216979980469	374.0627441406251	-701.8390502929689	-383.8155822753907	291.0438842773438	-671.5408325195314	-337.1253662109376	293.0061340332032	-676.8055419921876	-320.0747680664063	243.7749786376954	-706.5380859375001	-377.9913330078126	91.14727783203126	-681.0006103515626	-335.3074951171876	104.5465240478516	-763.7442016601564	-420.8834533691407	50.43861389160158	-741.5970458984376	-210.6132507324219	54.9850425720215	-711.5619506835939	-218.7437286376954	60.98812103271486	-666.0538330078126	-274.7213745117188	32.37248611450196	-620.8055419921876	nan	nan	nan	
